<?xml version="1.0" encoding="UTF-8"?>
<!DOCTYPE svg PUBLIC "-//W3C//DTD SVG 1.1//EN" "http://www.w3.org/Graphics/SVG/1.1/DTD/svg11.dtd">
<svg xmlns="http://www.w3.org/2000/svg" version="1.1" width="3460px" height="780px" style="shape-rendering:geometricPrecision; text-rendering:geometricPrecision; image-rendering:optimizeQuality; fill-rule:evenodd; clip-rule:evenodd" xmlns:xlink="http://www.w3.org/1999/xlink">
<g><path style="opacity:0.995" fill="#223d92" d="M 361.5,-0.5 C 380.167,-0.5 398.833,-0.5 417.5,-0.5C 549.642,12.4558 651.476,74.4558 723,185.5C 780.339,283.543 794.339,387.543 765,497.5C 725.873,622.961 645.039,709.461 522.5,757C 488.309,768.936 453.309,776.436 417.5,779.5C 398.833,779.5 380.167,779.5 361.5,779.5C 229.358,766.544 127.524,704.544 56,593.5C 23.3989,539.198 4.56554,480.532 -0.5,417.5C -0.5,398.833 -0.5,380.167 -0.5,361.5C 12.4558,229.358 74.4558,127.524 185.5,56C 239.802,23.3989 298.468,4.56554 361.5,-0.5 Z M 292.5,222.5 C 308.5,222.5 324.5,222.5 340.5,222.5C 340.123,246.587 340.123,270.587 340.5,294.5C 370.502,294.667 400.502,294.5 430.5,294C 431.494,270.241 431.828,246.408 431.5,222.5C 447.411,222.175 463.244,222.509 479,223.5C 479.156,246.467 479.323,270.134 479.5,294.5C 503.167,294.5 526.833,294.5 550.5,294.5C 550.825,311.411 550.492,328.244 549.5,345C 526.169,345.5 502.836,345.667 479.5,345.5C 479.5,375.167 479.5,404.833 479.5,434.5C 503.167,434.5 526.833,434.5 550.5,434.5C 550.5,451.5 550.5,468.5 550.5,485.5C 526.833,485.5 503.167,485.5 479.5,485.5C 479.5,509.167 479.5,532.833 479.5,556.5C 463.5,556.5 447.5,556.5 431.5,556.5C 431.5,532.833 431.5,509.167 431.5,485.5C 401.167,485.5 370.833,485.5 340.5,485.5C 340.711,509.179 340.378,532.846 339.5,556.5C 323.833,556.5 308.167,556.5 292.5,556.5C 292.827,532.925 292.494,509.425 291.5,486C 267.836,485.5 244.169,485.333 220.5,485.5C 220.5,468.5 220.5,451.5 220.5,434.5C 244.5,434.5 268.5,434.5 292.5,434.5C 292.667,404.831 292.5,375.165 292,345.5C 268.733,344.729 244.9,344.396 220.5,344.5C 220.5,327.833 220.5,311.167 220.5,294.5C 244.169,294.667 267.836,294.5 291.5,294C 292.494,270.241 292.828,246.408 292.5,222.5 Z"/></g>
<g><path style="opacity:0.865" fill="#223d92" d="M 2276.5,138.5 C 2300.07,138.173 2323.57,138.506 2347,139.5C 2347.67,269.833 2347.67,400.167 2347,530.5C 2323.57,531.494 2300.07,531.827 2276.5,531.5C 2276.5,516.167 2276.5,500.833 2276.5,485.5C 2275.18,485.33 2274.01,485.663 2273,486.5C 2272.17,489.172 2271.33,491.839 2270.5,494.5C 2263.4,502.089 2255.74,509.256 2247.5,516C 2244.08,516.406 2241.42,518.072 2239.5,521C 2236,521.333 2233.16,522.833 2231,525.5C 2225.77,525.616 2221.27,527.449 2217.5,531C 2214.17,531.333 2210.83,531.667 2207.5,532C 2204.71,533.789 2201.71,535.122 2198.5,536C 2170.83,536.667 2143.17,536.667 2115.5,536C 2112.93,535.099 2110.6,533.766 2108.5,532C 2104.5,531.667 2100.5,531.333 2096.5,531C 2093.95,530.448 2091.95,529.114 2090.5,527C 2085.59,527.403 2081.59,525.737 2078.5,522C 2076.5,521.667 2074.5,521.333 2072.5,521C 2066.17,517.838 2060.17,514.172 2054.5,510C 2044.96,502.106 2035.96,493.606 2027.5,484.5C 2026.15,481.804 2024.32,479.47 2022,477.5C 2021.34,475.187 2020.84,472.854 2020.5,470.5C 2019.02,470.762 2017.69,470.429 2016.5,469.5C 2015.83,466.833 2015.17,464.167 2014.5,461.5C 2013.37,460.738 2012.21,460.071 2011,459.5C 2010.5,456.518 2010.34,453.518 2010.5,450.5C 2008.61,450.703 2007.11,450.037 2006,448.5C 2006.3,441.541 2004.63,435.208 2001,429.5C 2000.33,404.167 2000.33,378.833 2001,353.5C 2001.45,350.894 2002.95,349.561 2005.5,349.5C 2005.33,344.821 2005.5,340.155 2006,335.5C 2007.01,334.663 2008.18,334.33 2009.5,334.5C 2009.33,329.888 2011,326.221 2014.5,323.5C 2015.17,320.833 2015.83,318.167 2016.5,315.5C 2017.69,314.571 2019.02,314.238 2020.5,314.5C 2022.8,309.993 2024.96,305.326 2027,300.5C 2029.82,299.671 2031.66,297.838 2032.5,295C 2033.5,294.667 2034.5,294.333 2035.5,294C 2042.58,285.274 2051.25,278.274 2061.5,273C 2063.46,269.521 2066.46,267.854 2070.5,268C 2072.75,264.279 2076.08,262.612 2080.5,263C 2083.94,259.181 2088.27,257.515 2093.5,258C 2094.5,257 2095.5,256 2096.5,255C 2101.08,253.855 2105.75,253.189 2110.5,253C 2113.29,251.211 2116.29,249.878 2119.5,249C 2147.4,247.471 2175.4,247.471 2203.5,249C 2207.29,249.23 2210.62,250.563 2213.5,253C 2217.17,253.333 2220.83,253.667 2224.5,254C 2227.02,254.518 2229.02,255.852 2230.5,258C 2235.3,257.929 2239.3,259.595 2242.5,263C 2244.17,263.333 2245.83,263.667 2247.5,264C 2253.57,270.063 2260.23,275.396 2267.5,280C 2269.98,284.139 2272.81,287.972 2276,291.5C 2276.5,240.501 2276.67,189.501 2276.5,138.5 Z M 2161.5,310.5 C 2166.84,310.334 2172.18,310.501 2177.5,311C 2178.55,312.385 2179.88,313.385 2181.5,314C 2192.16,314.814 2202.82,315.481 2213.5,316C 2217.34,319.746 2222,321.413 2227.5,321C 2229.99,324.243 2233.32,325.909 2237.5,326C 2239.83,328.835 2242.83,330.669 2246.5,331.5C 2247.95,334.122 2250.12,335.788 2253,336.5C 2257.34,341.507 2261.67,346.507 2266,351.5C 2265.61,355.921 2267.28,359.255 2271,361.5C 2271.51,369.18 2272.18,376.847 2273,384.5C 2275.56,385.219 2276.72,386.886 2276.5,389.5C 2275.18,389.33 2274.01,389.663 2273,390.5C 2272.18,398.153 2271.51,405.82 2271,413.5C 2267.28,415.745 2265.61,419.079 2266,423.5C 2263.26,425.984 2261.26,428.984 2260,432.5C 2254.44,437.725 2249.27,443.225 2244.5,449C 2240.5,451.333 2236.5,453.667 2232.5,456C 2230.8,458.982 2228.14,460.316 2224.5,460C 2223.04,461.582 2221.37,462.915 2219.5,464C 2214.34,463.715 2210.01,465.382 2206.5,469C 2197.17,469.667 2187.83,470.333 2178.5,471C 2171.17,475.667 2163.83,475.667 2156.5,471C 2147.5,470.381 2138.5,469.714 2129.5,469C 2128.83,468 2128.17,467 2127.5,466C 2123.89,465.055 2120.22,464.388 2116.5,464C 2114.23,461.032 2111.23,459.366 2107.5,459C 2097.75,451.913 2089.25,443.413 2082,433.5C 2081.18,431.212 2080.51,428.878 2080,426.5C 2079,425.833 2078,425.167 2077,424.5C 2077.48,418.718 2075.81,413.718 2072,409.5C 2071.33,396.833 2071.33,384.167 2072,371.5C 2073,370.5 2074,369.5 2075,368.5C 2075.77,364.853 2076.44,361.186 2077,357.5C 2081.32,350.199 2085.98,343.199 2091,336.5C 2094.83,334.167 2098.67,331.833 2102.5,329.5C 2104.49,326.15 2107.49,324.65 2111.5,325C 2112.83,323.667 2114.17,322.333 2115.5,321C 2120.66,321.285 2124.99,319.618 2128.5,316C 2137.84,315.422 2147.17,314.755 2156.5,314C 2158.35,312.97 2160.01,311.804 2161.5,310.5 Z"/></g>
<g><path style="opacity:0.866" fill="#223d92" d="M 1823.5,244.5 C 1828.05,243.884 1832.05,245.051 1835.5,248C 1846.17,248.333 1856.83,248.667 1867.5,249C 1871.21,249.373 1874.54,250.707 1877.5,253C 1881.92,253.208 1886.25,253.874 1890.5,255C 1893.1,257.959 1896.43,259.293 1900.5,259C 1909.17,264.346 1917.84,269.679 1926.5,275C 1932.8,280.862 1938.63,287.028 1944,293.5C 1944.81,295.436 1945.31,297.436 1945.5,299.5C 1946.98,299.238 1948.31,299.571 1949.5,300.5C 1950.17,303.167 1950.83,305.833 1951.5,308.5C 1952.63,309.262 1953.79,309.929 1955,310.5C 1955.5,313.482 1955.66,316.482 1955.5,319.5C 1958.05,319.561 1959.55,320.894 1960,323.5C 1960.8,328.643 1961.13,333.643 1961,338.5C 1963.44,339.274 1964.77,340.94 1965,343.5C 1965.67,405.833 1965.67,468.167 1965,530.5C 1941.67,531.833 1918.33,531.833 1895,530.5C 1894.5,483.835 1894.33,437.168 1894.5,390.5C 1893.18,390.67 1892.01,390.337 1891,389.5C 1890.46,379.825 1889.79,370.158 1889,360.5C 1886.4,354.058 1883.4,347.725 1880,341.5C 1876.83,338 1873.67,334.5 1870.5,331C 1867.08,330.594 1864.42,328.928 1862.5,326C 1858.35,325.927 1855.02,324.261 1852.5,321C 1845.82,321.414 1839.82,319.748 1834.5,316C 1814.17,315.333 1793.83,315.333 1773.5,316C 1768.51,319.668 1762.84,321.334 1756.5,321C 1752.95,324.608 1748.61,326.275 1743.5,326C 1741.54,329.479 1738.54,331.146 1734.5,331C 1726.1,337.224 1718.44,344.391 1711.5,352.5C 1706.86,358.8 1703.02,365.466 1700,372.5C 1699.67,375.833 1699.33,379.167 1699,382.5C 1697.4,384.307 1696.06,386.307 1695,388.5C 1694.67,435.833 1694.33,483.167 1694,530.5C 1670.57,531.494 1647.07,531.827 1623.5,531.5C 1623.5,438.833 1623.5,346.167 1623.5,253.5C 1646.84,253.333 1670.17,253.5 1693.5,254C 1694.16,271.103 1694.83,288.269 1695.5,305.5C 1696.74,304.754 1698.07,304.421 1699.5,304.5C 1701.36,300.104 1703.53,295.771 1706,291.5C 1711.85,286.237 1717.35,280.737 1722.5,275C 1731.68,269.973 1740.68,264.64 1749.5,259C 1751.5,258.667 1753.5,258.333 1755.5,258C 1760.45,254.191 1766.12,252.524 1772.5,253C 1775.46,250.707 1778.79,249.373 1782.5,249C 1794.17,248.667 1805.83,248.333 1817.5,248C 1819.73,247.059 1821.73,245.892 1823.5,244.5 Z"/></g>
<g><path style="opacity:0.866" fill="#223d92" d="M 2948.5,244.5 C 2953.05,243.884 2957.05,245.051 2960.5,248C 2972.87,248.13 2985.21,248.797 2997.5,250C 2998.72,251.74 3000.38,252.74 3002.5,253C 3005.83,253.333 3009.17,253.667 3012.5,254C 3015.02,254.518 3017.02,255.852 3018.5,258C 3021.62,258.206 3024.62,258.873 3027.5,260C 3035.15,265.496 3043.15,270.496 3051.5,275C 3055.56,278.932 3059.72,282.765 3064,286.5C 3066.8,290.141 3068.97,294.141 3070.5,298.5C 3071.83,299.167 3073.17,299.833 3074.5,300.5C 3075.17,303.167 3075.83,305.833 3076.5,308.5C 3077.63,309.262 3078.79,309.929 3080,310.5C 3080.18,313.553 3080.68,316.553 3081.5,319.5C 3083.64,320.472 3084.8,322.139 3085,324.5C 3085.5,329.489 3085.67,334.489 3085.5,339.5C 3086.82,339.33 3087.99,339.663 3089,340.5C 3089.33,342.5 3089.67,344.5 3090,346.5C 3090.67,407.833 3090.67,469.167 3090,530.5C 3066.57,531.494 3043.07,531.827 3019.5,531.5C 3019.5,484.5 3019.5,437.5 3019.5,390.5C 3018.18,390.67 3017.01,390.337 3016,389.5C 3015.38,379.83 3014.71,370.164 3014,360.5C 3013,359.5 3012,358.5 3011,357.5C 3010.65,354.424 3009.99,351.424 3009,348.5C 3003.57,339.402 2996.4,331.902 2987.5,326C 2983.35,325.927 2980.02,324.261 2977.5,321C 2970.82,321.414 2964.82,319.748 2959.5,316C 2939.17,315.333 2918.83,315.333 2898.5,316C 2893.51,319.668 2887.84,321.334 2881.5,321C 2877.95,324.608 2873.61,326.275 2868.5,326C 2866.25,329.721 2862.92,331.388 2858.5,331C 2848.05,339.618 2838.72,349.452 2830.5,360.5C 2830.02,365.134 2828.18,369.134 2825,372.5C 2824.67,375.833 2824.33,379.167 2824,382.5C 2822.92,384.373 2821.58,386.04 2820,387.5C 2819.67,435.167 2819.33,482.833 2819,530.5C 2795.57,531.494 2772.07,531.827 2748.5,531.5C 2748.5,438.833 2748.5,346.167 2748.5,253.5C 2771.84,253.333 2795.17,253.5 2818.5,254C 2819.16,271.103 2819.83,288.269 2820.5,305.5C 2821.75,304.96 2822.91,304.293 2824,303.5C 2826.4,300.086 2828.4,296.42 2830,292.5C 2834.17,288.659 2838.01,284.493 2841.5,280C 2845.58,276.447 2849.91,273.114 2854.5,270C 2856.39,269.027 2858.39,268.36 2860.5,268C 2861.17,267 2861.83,266 2862.5,265C 2866.64,264.27 2870.14,262.436 2873,259.5C 2875.46,258.839 2877.96,258.339 2880.5,258C 2885.45,254.191 2891.12,252.524 2897.5,253C 2900.38,250.563 2903.71,249.23 2907.5,249C 2919.17,248.667 2930.83,248.333 2942.5,248C 2944.73,247.059 2946.73,245.892 2948.5,244.5 Z"/></g>
<g><path style="opacity:0.849" fill="#223d92" d="M 1071.5,247.5 C 1088.76,248.319 1106.09,248.819 1123.5,249C 1127.27,250.049 1130.93,251.382 1134.5,253C 1139.04,253.253 1143.54,253.753 1148,254.5C 1149.19,256.024 1150.69,257.19 1152.5,258C 1157.79,257.511 1162.12,259.177 1165.5,263C 1167.5,263.333 1169.5,263.667 1171.5,264C 1173.92,266.094 1176.59,267.76 1179.5,269C 1180.74,270.154 1181.74,271.488 1182.5,273C 1186.76,274.934 1190.76,277.268 1194.5,280C 1197.63,285.784 1201.47,290.951 1206,295.5C 1207,299.501 1209,302.834 1212,305.5C 1211.59,311.529 1213.25,316.862 1217,321.5C 1217.67,332.5 1217.67,343.5 1217,354.5C 1193.88,355.809 1170.71,355.809 1147.5,354.5C 1147.18,346.826 1146.68,339.159 1146,331.5C 1141.34,322.832 1134.34,317.165 1125,314.5C 1123.5,313.327 1122,312.161 1120.5,311C 1110.51,310.25 1100.51,309.584 1090.5,309C 1085.77,306.061 1080.6,304.895 1075,305.5C 1071.83,305.667 1068.67,305.833 1065.5,306C 1064.17,307 1062.83,308 1061.5,309C 1049.49,309.534 1037.49,310.2 1025.5,311C 1024.5,312 1023.5,313 1022.5,314C 1018.79,314.895 1015.12,315.895 1011.5,317C 1005.69,320.708 1000.86,325.541 997,331.5C 996.333,337.167 996.333,342.833 997,348.5C 999.386,349.763 1001.22,351.597 1002.5,354C 1004.83,354.333 1007.17,354.667 1009.5,355C 1011.5,356.333 1013.5,357.667 1015.5,359C 1027.85,359.362 1040.18,360.028 1052.5,361C 1053.55,362.385 1054.88,363.385 1056.5,364C 1083.52,364.105 1110.52,364.772 1137.5,366C 1138.55,367.385 1139.88,368.385 1141.5,369C 1150.17,369.333 1158.83,369.667 1167.5,370C 1170.17,371.333 1172.83,372.667 1175.5,374C 1179.5,374.333 1183.5,374.667 1187.5,375C 1190.14,378.817 1193.8,380.484 1198.5,380C 1199.72,383.223 1202.06,384.889 1205.5,385C 1206.72,388.223 1209.06,389.889 1212.5,390C 1214.76,392.585 1216.59,395.418 1218,398.5C 1219,399.167 1220,399.833 1221,400.5C 1222,403.167 1223,405.833 1224,408.5C 1225,409.167 1226,409.833 1227,410.5C 1227.18,413.553 1227.68,416.553 1228.5,419.5C 1230.29,419.962 1231.29,421.129 1231.5,423C 1232.62,435.477 1232.78,447.977 1232,460.5C 1231.87,463.414 1230.7,465.747 1228.5,467.5C 1227.8,471.471 1227.3,475.471 1227,479.5C 1225.64,480.38 1224.14,480.714 1222.5,480.5C 1222.66,482.857 1222.5,485.19 1222,487.5C 1212.76,497.738 1202.6,506.905 1191.5,515C 1185.1,518.868 1178.43,522.201 1171.5,525C 1167.92,526.073 1164.25,526.74 1160.5,527C 1158.4,528.766 1156.07,530.099 1153.5,531C 1148.83,531.333 1144.17,531.667 1139.5,532C 1136.14,533.383 1132.81,534.716 1129.5,536C 1093.17,536.667 1056.83,536.667 1020.5,536C 1017.93,535.099 1015.6,533.766 1013.5,532C 1008.83,531.667 1004.17,531.333 999.5,531C 995.282,527.186 990.282,525.519 984.5,526C 982.545,525.047 980.878,523.713 979.5,522C 962.759,516.537 949.592,506.37 940,491.5C 938.989,490.663 937.822,490.33 936.5,490.5C 936.102,487.256 934.602,484.589 932,482.5C 931.494,477.069 929.494,472.403 926,468.5C 925.5,457.172 925.333,445.838 925.5,434.5C 947.5,434.5 969.5,434.5 991.5,434.5C 990.519,439.8 992.019,444.133 996,447.5C 996.18,450.956 996.847,454.289 998,457.5C 1000.19,459.388 1002.02,461.555 1003.5,464C 1006.81,464.653 1009.47,466.319 1011.5,469C 1016.57,469.006 1020.9,470.673 1024.5,474C 1035.49,474.842 1046.49,475.508 1057.5,476C 1062.57,478.963 1068.07,480.129 1074,479.5C 1079.93,480.129 1085.43,478.963 1090.5,476C 1103.51,475.583 1116.51,474.916 1129.5,474C 1130.5,473 1131.5,472 1132.5,471C 1136.54,470.272 1140.54,469.439 1144.5,468.5C 1148.65,465.942 1152.48,462.942 1156,459.5C 1158.22,451.864 1158.56,444.197 1157,436.5C 1155.38,434.759 1153.88,432.925 1152.5,431C 1149.83,430.667 1147.17,430.333 1144.5,430C 1142.84,428.171 1140.84,426.837 1138.5,426C 1122.66,425.644 1106.83,425.144 1091,424.5C 1087.11,424.533 1083.28,424.867 1079.5,425.5C 1076.47,424.634 1073.8,423.134 1071.5,421C 1051.5,420.667 1031.5,420.333 1011.5,420C 1007.95,419.226 1004.62,417.893 1001.5,416C 995.167,415.667 988.833,415.333 982.5,415C 981.122,413.287 979.455,411.953 977.5,411C 973.5,410.667 969.5,410.333 965.5,410C 962.863,406.183 959.196,404.516 954.5,405C 945.975,398.638 938.308,391.471 931.5,383.5C 930.607,380.916 930.274,378.249 930.5,375.5C 927.612,375.78 926.112,374.447 926,371.5C 925.333,353.167 925.333,334.833 926,316.5C 926.9,315.23 928.066,314.23 929.5,313.5C 930.213,311.224 930.713,308.891 931,306.5C 934.282,303.607 936.282,299.94 937,295.5C 938.333,294.833 939.667,294.167 941,293.5C 942.731,290.732 944.564,288.065 946.5,285.5C 953.69,279.81 961.023,274.31 968.5,269C 972.002,268.667 974.835,267.167 977,264.5C 980.862,264.34 984.028,262.84 986.5,260C 990.084,258.927 993.75,258.26 997.5,258C 999.269,256.936 1000.94,255.769 1002.5,254.5C 1007.47,253.771 1012.47,253.271 1017.5,253C 1019.35,250.908 1021.68,249.574 1024.5,249C 1040.34,248.831 1056.01,248.331 1071.5,247.5 Z"/></g>
<g><path style="opacity:0.85" fill="#223d92" d="M 2552.5,247.5 C 2566.43,248.316 2580.43,248.816 2594.5,249C 2598.47,249.483 2602.13,250.816 2605.5,253C 2609.17,253.333 2612.83,253.667 2616.5,254C 2619.02,254.518 2621.02,255.852 2622.5,258C 2627.96,257.59 2632.62,259.256 2636.5,263C 2638.95,263.29 2641.29,263.956 2643.5,265C 2653.29,270.945 2662.62,277.611 2671.5,285C 2674.43,289.348 2677.93,293.182 2682,296.5C 2687.09,305.688 2692.42,314.688 2698,323.5C 2699.11,327.086 2699.61,330.753 2699.5,334.5C 2701.12,334.36 2702.29,335.027 2703,336.5C 2704.24,342.435 2704.74,348.435 2704.5,354.5C 2706.12,354.36 2707.29,355.027 2708,356.5C 2709.72,376.173 2709.88,395.839 2708.5,415.5C 2624.83,415.5 2541.17,415.5 2457.5,415.5C 2458.15,419.14 2459.65,422.473 2462,425.5C 2462.18,428.553 2462.68,431.553 2463.5,434.5C 2464.67,434.919 2465.67,435.585 2466.5,436.5C 2467.77,442.781 2470.77,448.114 2475.5,452.5C 2482.51,459.173 2490.18,464.673 2498.5,469C 2503.57,469.006 2507.9,470.673 2511.5,474C 2522.16,474.745 2532.83,475.411 2543.5,476C 2550.06,479.378 2557.06,480.378 2564.5,479C 2565.55,477.615 2566.88,476.615 2568.5,476C 2579.18,475.599 2589.85,474.932 2600.5,474C 2604.86,470.654 2609.86,468.987 2615.5,469C 2617.62,465.841 2620.62,464.174 2624.5,464C 2628.64,458.923 2633.14,454.089 2638,449.5C 2637.54,443.681 2639.38,438.847 2643.5,435C 2664.83,434.333 2686.17,434.333 2707.5,435C 2708,435.5 2708.5,436 2709,436.5C 2709.57,442.539 2709.24,448.539 2708,454.5C 2705.74,457.254 2704.24,460.421 2703.5,464C 2703.99,466.009 2703.99,468.176 2703.5,470.5C 2702.18,470.33 2701.01,470.663 2700,471.5C 2700.02,475.818 2698.36,479.152 2695,481.5C 2692.64,485.187 2690.3,488.854 2688,492.5C 2683.49,496.376 2679.32,500.543 2675.5,505C 2672.27,506.106 2669.61,507.939 2667.5,510.5C 2664.25,510.708 2661.92,512.208 2660.5,515C 2657.2,515.754 2654.53,517.421 2652.5,520C 2647.19,520.547 2642.52,522.547 2638.5,526C 2633.04,525.59 2628.38,527.256 2624.5,531C 2620.17,531.333 2615.83,531.667 2611.5,532C 2609.88,532.615 2608.55,533.615 2607.5,535C 2605.5,535.333 2603.5,535.667 2601.5,536C 2569.83,536.667 2538.17,536.667 2506.5,536C 2503.39,535.556 2500.72,534.223 2498.5,532C 2493.83,531.667 2489.17,531.333 2484.5,531C 2482.54,530.047 2480.88,528.713 2479.5,527C 2473.72,527.481 2468.72,525.814 2464.5,522C 2460.35,521.927 2457.02,520.261 2454.5,517C 2452.44,516.689 2450.44,516.189 2448.5,515.5C 2442.23,509.403 2435.23,504.237 2427.5,500C 2422.97,494.806 2418.14,489.973 2413,485.5C 2409.67,480.822 2406.33,476.156 2403,471.5C 2403.44,467.557 2401.77,465.224 2398,464.5C 2398.14,458.586 2396.14,453.586 2392,449.5C 2391.67,446.5 2391.33,443.5 2391,440.5C 2389.67,437.833 2388.33,435.167 2387,432.5C 2386.19,406.47 2386.36,380.47 2387.5,354.5C 2388.5,354.5 2389.5,354.5 2390.5,354.5C 2391.07,349.851 2391.57,345.184 2392,340.5C 2396.48,336.529 2398.48,331.529 2398,325.5C 2399.33,324.833 2400.67,324.167 2402,323.5C 2402.33,320.833 2402.67,318.167 2403,315.5C 2407.96,311.51 2411.96,306.51 2415,300.5C 2418.25,297.058 2421.42,293.558 2424.5,290C 2427.4,289.431 2429.4,287.765 2430.5,285C 2434.69,281.413 2439.03,278.08 2443.5,275C 2446.68,274.403 2449.01,272.737 2450.5,270C 2452.71,268.956 2455.05,268.29 2457.5,268C 2461.67,264.982 2466,262.315 2470.5,260C 2473.75,258.964 2477.09,258.297 2480.5,258C 2482.5,256.667 2484.5,255.333 2486.5,254C 2490.83,253.667 2495.17,253.333 2499.5,253C 2501.12,252.385 2502.45,251.385 2503.5,250C 2519.97,248.927 2536.3,248.094 2552.5,247.5 Z M 2546.5,305.5 C 2553.26,304.668 2559.59,305.835 2565.5,309C 2575.51,309.51 2585.51,310.177 2595.5,311C 2599.38,314.744 2604.04,316.41 2609.5,316C 2611.2,319.184 2613.86,320.85 2617.5,321C 2626.62,327.78 2633.45,336.28 2638,346.5C 2637.21,352.552 2638.71,358.052 2642.5,363C 2642.17,363.333 2641.83,363.667 2641.5,364C 2581.17,364.5 2520.83,364.667 2460.5,364.5C 2462.27,356.382 2465.11,348.715 2469,341.5C 2474.87,333.659 2481.71,326.825 2489.5,321C 2491.22,320.654 2492.88,320.154 2494.5,319.5C 2495.36,317.803 2496.7,316.637 2498.5,316C 2503.71,316.294 2508.04,314.628 2511.5,311C 2521.18,310.458 2530.84,309.791 2540.5,309C 2542.73,308.059 2544.73,306.892 2546.5,305.5 Z"/></g>
<g><path style="opacity:0.869" fill="#223d92" d="M 3459.5,346.5 C 3459.5,377.5 3459.5,408.5 3459.5,439.5C 3457.42,439.472 3455.58,440.139 3454,441.5C 3452.93,445.084 3452.26,448.75 3452,452.5C 3451.33,454.5 3450,455.833 3448,456.5C 3448.47,461.232 3446.64,464.565 3442.5,466.5C 3442.61,471.019 3440.78,474.352 3437,476.5C 3434.35,480.828 3431.01,484.494 3427,487.5C 3425.48,492.418 3422.31,495.585 3417.5,497C 3414.71,499.63 3412.04,502.463 3409.5,505.5C 3405.63,507.868 3401.63,510.034 3397.5,512C 3395.44,515.397 3392.44,517.063 3388.5,517C 3386.7,517.637 3385.36,518.803 3384.5,520.5C 3379.87,520.984 3375.87,522.817 3372.5,526C 3369.83,526.333 3367.17,526.667 3364.5,527C 3362.4,528.766 3360.07,530.099 3357.5,531C 3353.17,531.333 3348.83,531.667 3344.5,532C 3342.4,533.766 3340.07,535.099 3337.5,536C 3306.17,536.667 3274.83,536.667 3243.5,536C 3237.11,532.112 3230.11,530.445 3222.5,531C 3219.93,530.099 3217.6,528.766 3215.5,527C 3209.96,527.415 3205.3,525.749 3201.5,522C 3197.12,522.385 3193.79,520.719 3191.5,517C 3189.3,516.627 3187.14,516.127 3185,515.5C 3179.77,512.133 3174.61,508.633 3169.5,505C 3165.77,501.26 3161.77,497.927 3157.5,495C 3152.48,488.732 3147.31,482.566 3142,476.5C 3141.19,474.564 3140.69,472.564 3140.5,470.5C 3139.02,470.762 3137.69,470.429 3136.5,469.5C 3135.58,466.553 3134.91,463.553 3134.5,460.5C 3133.18,460.67 3132.01,460.337 3131,459.5C 3130.67,456.833 3130.33,454.167 3130,451.5C 3128.67,450.833 3127.33,450.167 3126,449.5C 3125.07,445.039 3124.73,440.706 3125,436.5C 3124,435.833 3123,435.167 3122,434.5C 3120.9,430.584 3120.23,426.584 3120,422.5C 3119.08,400.134 3119.41,377.801 3121,355.5C 3121.9,352.918 3123.23,350.584 3125,348.5C 3124.89,343.139 3126.56,338.472 3130,334.5C 3130.33,331.5 3130.67,328.5 3131,325.5C 3132.33,324.833 3133.67,324.167 3135,323.5C 3136.53,318.819 3138.69,314.485 3141.5,310.5C 3144.77,305.398 3148.93,301.065 3154,297.5C 3155.19,292.306 3158.36,289.14 3163.5,288C 3165.49,285.012 3167.82,282.345 3170.5,280C 3173.76,278.791 3176.59,276.958 3179,274.5C 3183.27,271.899 3187.77,269.732 3192.5,268C 3195.28,264.443 3198.95,262.776 3203.5,263C 3207.28,259.117 3211.95,257.45 3217.5,258C 3218.98,255.852 3220.98,254.518 3223.5,254C 3227.5,253.667 3231.5,253.333 3235.5,253C 3238.31,251.175 3241.31,249.842 3244.5,249C 3274.18,247.377 3303.85,247.377 3333.5,249C 3337.79,248.792 3341.46,250.125 3344.5,253C 3348.5,253.333 3352.5,253.667 3356.5,254C 3359.07,254.901 3361.4,256.234 3363.5,258C 3366.17,258.333 3368.83,258.667 3371.5,259C 3374.95,262.06 3378.95,264.06 3383.5,265C 3386.23,267.759 3389.56,269.426 3393.5,270C 3395.06,272.874 3397.56,274.374 3401,274.5C 3407.12,278.623 3412.62,283.457 3417.5,289C 3418.5,289.333 3419.5,289.667 3420.5,290C 3422.82,292.735 3424.98,295.568 3427,298.5C 3433.89,303.566 3438.89,310.233 3442,318.5C 3445.81,320.223 3447.47,323.223 3447,327.5C 3450.96,332.055 3452.96,337.389 3453,343.5C 3455.03,344.862 3457.2,345.862 3459.5,346.5 Z M 3283.5,310.5 C 3288.18,310.334 3292.85,310.501 3297.5,311C 3298.55,312.385 3299.88,313.385 3301.5,314C 3310.83,314.667 3320.17,315.333 3329.5,316C 3333.38,319.744 3338.04,321.41 3343.5,321C 3345.3,321.637 3346.64,322.803 3347.5,324.5C 3349.44,325.189 3351.44,325.689 3353.5,326C 3359.64,331.14 3365.81,336.306 3372,341.5C 3372.95,343.455 3374.29,345.122 3376,346.5C 3375.94,350.442 3377.6,353.442 3381,355.5C 3381.33,358.167 3381.67,360.833 3382,363.5C 3383.11,365.037 3384.61,365.703 3386.5,365.5C 3386.68,372.268 3386.68,378.935 3386.5,385.5C 3387.09,388.022 3387.76,390.522 3388.5,393C 3386.76,396.09 3386.43,399.257 3387.5,402.5C 3386.87,408.146 3386.21,413.813 3385.5,419.5C 3383.87,419.968 3382.7,420.968 3382,422.5C 3381.82,425.226 3381.32,427.893 3380.5,430.5C 3376.74,437.298 3372.07,443.631 3366.5,449.5C 3363.13,452.777 3359.46,455.611 3355.5,458C 3353.22,458.986 3350.89,459.82 3348.5,460.5C 3347.64,462.197 3346.3,463.363 3344.5,464C 3338.86,463.987 3333.86,465.654 3329.5,469C 3320.18,469.833 3310.85,470.499 3301.5,471C 3298.47,473.945 3294.81,475.112 3290.5,474.5C 3285.67,475.019 3281.34,473.853 3277.5,471C 3268.15,470.568 3258.82,469.901 3249.5,469C 3248.5,468 3247.5,467 3246.5,466C 3242.56,465.007 3238.56,464.34 3234.5,464C 3232.58,460.538 3229.58,458.871 3225.5,459C 3218.74,454.239 3212.57,448.739 3207,442.5C 3202.61,436.596 3198.94,430.263 3196,423.5C 3195.5,421.965 3195.67,420.465 3196.5,419C 3195.37,416.22 3193.87,413.72 3192,411.5C 3191.33,399.167 3191.33,386.833 3192,374.5C 3194.98,371.253 3196.15,367.586 3195.5,363.5C 3198.6,356.035 3202.43,349.035 3207,342.5C 3213.52,336.973 3220.02,331.473 3226.5,326C 3230.68,325.909 3234.01,324.243 3236.5,321C 3241.79,321.489 3246.12,319.823 3249.5,316C 3258.85,315.568 3268.18,314.901 3277.5,314C 3279.73,313.059 3281.73,311.892 3283.5,310.5 Z"/></g>
<g><path style="opacity:0.862" fill="#223d92" d="M 1242.5,253.5 C 1268.84,253.333 1295.17,253.5 1321.5,254C 1322.64,256.783 1324.47,258.95 1327,260.5C 1327.92,263.101 1328.59,265.768 1329,268.5C 1330,269.167 1331,269.833 1332,270.5C 1332.41,273.232 1333.08,275.899 1334,278.5C 1335.01,279.337 1336.18,279.67 1337.5,279.5C 1337.59,284.082 1339.26,287.916 1342.5,291C 1345.81,300.123 1350.31,308.623 1356,316.5C 1358.39,322.195 1360.72,327.862 1363,333.5C 1366.58,335.779 1368.41,339.113 1368.5,343.5C 1372.7,345.232 1374.2,348.232 1373,352.5C 1375.58,353.766 1377.41,355.766 1378.5,358.5C 1376.96,362.096 1378.13,364.43 1382,365.5C 1383.09,368.044 1383.76,370.711 1384,373.5C 1387.72,375.699 1389.39,379.033 1389,383.5C 1392.72,385.699 1394.39,389.033 1394,393.5C 1395,394.167 1396,394.833 1397,395.5C 1399.67,401.5 1402.33,407.5 1405,413.5C 1408.98,420.152 1412.98,426.819 1417,433.5C 1419.04,438.523 1421.04,443.523 1423,448.5C 1423.84,450.844 1425.17,452.844 1427,454.5C 1428.45,450.811 1430.29,447.311 1432.5,444C 1433.16,441.536 1433.66,439.036 1434,436.5C 1438.18,435.086 1439.35,432.42 1437.5,428.5C 1438.17,426.5 1439.5,425.167 1441.5,424.5C 1441.73,420.369 1443.39,417.035 1446.5,414.5C 1447.31,412.234 1447.81,409.9 1448,407.5C 1451.5,401.378 1454.84,395.045 1458,388.5C 1458.32,384.507 1459.99,381.174 1463,378.5C 1463.33,375.833 1463.67,373.167 1464,370.5C 1465.33,369.833 1466.67,369.167 1468,368.5C 1467.61,363.942 1469.27,360.609 1473,358.5C 1473.33,355.833 1473.67,353.167 1474,350.5C 1475.01,349.663 1476.18,349.33 1477.5,349.5C 1478,346.513 1478.5,343.513 1479,340.5C 1481.85,337.861 1483.51,334.528 1484,330.5C 1485.33,329.833 1486.33,328.833 1487,327.5C 1487.28,322.021 1489.28,317.354 1493,313.5C 1492.43,308.913 1494.1,305.579 1498,303.5C 1498.33,300.833 1498.67,298.167 1499,295.5C 1500.33,294.833 1501.67,294.167 1503,293.5C 1503.5,290.518 1503.66,287.518 1503.5,284.5C 1504.83,284.5 1506.17,284.5 1507.5,284.5C 1507.52,280.082 1508.86,276.248 1511.5,273C 1514.94,266.89 1517.94,260.557 1520.5,254C 1545.07,253.173 1569.57,253.339 1594,254.5C 1594.67,257.5 1594.67,260.5 1594,263.5C 1592.91,264.293 1591.75,264.96 1590.5,265.5C 1590.41,269.89 1588.57,273.224 1585,275.5C 1584.67,277.833 1584.33,280.167 1584,282.5C 1580.2,286.287 1578.2,290.953 1578,296.5C 1574.85,301.385 1571.85,306.385 1569,311.5C 1568.67,313.833 1568.33,316.167 1568,318.5C 1566.32,319.061 1564.99,320.061 1564,321.5C 1563.67,323.833 1563.33,326.167 1563,328.5C 1562,329.167 1561,329.833 1560,330.5C 1560.39,334.967 1558.72,338.301 1555,340.5C 1555.14,344.948 1553.64,348.615 1550.5,351.5C 1547.73,358.041 1545.23,364.708 1543,371.5C 1539.34,374.994 1537.51,379.327 1537.5,384.5C 1536.25,385.04 1535.09,385.707 1534,386.5C 1533.82,389.226 1533.32,391.893 1532.5,394.5C 1531.83,394.833 1531.17,395.167 1530.5,395.5C 1529.36,398.062 1528.53,400.728 1528,403.5C 1524.1,406.508 1522.6,410.508 1523.5,415.5C 1520.95,415.561 1519.45,416.894 1519,419.5C 1518.67,421.167 1518.33,422.833 1518,424.5C 1515.17,429.877 1512.33,435.211 1509.5,440.5C 1508.68,443.447 1508.18,446.447 1508,449.5C 1506.67,450.167 1505.33,450.833 1504,451.5C 1503.67,454.167 1503.33,456.833 1503,459.5C 1501.67,460.167 1500.33,460.833 1499,461.5C 1498.67,464.167 1498.33,466.833 1498,469.5C 1496.99,470.337 1495.82,470.67 1494.5,470.5C 1494,473.487 1493.5,476.487 1493,479.5C 1489.76,481.985 1488.09,485.319 1488,489.5C 1484.26,492.548 1482.59,496.548 1483,501.5C 1479.43,504.98 1477.77,509.313 1478,514.5C 1474.27,516.609 1472.61,519.942 1473,524.5C 1471.67,525.167 1470.33,525.833 1469,526.5C 1468.5,529.482 1468.34,532.482 1468.5,535.5C 1467.18,535.33 1466.01,535.663 1465,536.5C 1463.96,538.715 1463.29,541.048 1463,543.5C 1459.26,546.548 1457.59,550.548 1458,555.5C 1454.54,557.418 1452.87,560.418 1453,564.5C 1450.05,568.4 1447.38,572.4 1445,576.5C 1444,579.5 1443,582.5 1442,585.5C 1440.79,586.071 1439.63,586.738 1438.5,587.5C 1436.87,592.102 1434.7,596.435 1432,600.5C 1431,601.167 1430,601.833 1429,602.5C 1425.47,608.929 1421.3,614.929 1416.5,620.5C 1410.37,625.134 1404.7,630.301 1399.5,636C 1396.19,636.653 1393.53,638.319 1391.5,641C 1388.04,641.788 1385.04,643.454 1382.5,646C 1377.34,645.715 1373.01,647.382 1369.5,651C 1346.49,652.669 1323.49,652.669 1300.5,651C 1295.55,647.191 1289.88,645.524 1283.5,646C 1282.75,644.266 1282.25,642.433 1282,640.5C 1281.33,621.167 1281.33,601.833 1282,582.5C 1282.8,581.196 1283.97,580.529 1285.5,580.5C 1289.05,580.957 1292.05,582.457 1294.5,585C 1302.53,585.335 1310.53,586.002 1318.5,587C 1323.76,591.559 1329.09,591.559 1334.5,587C 1340.12,585.948 1345.78,585.282 1351.5,585C 1356.79,581.673 1361.79,577.84 1366.5,573.5C 1371.5,566.007 1376.67,558.674 1382,551.5C 1384.82,547.165 1386.99,542.498 1388.5,537.5C 1390.5,536.167 1392.17,534.5 1393.5,532.5C 1390.22,531.676 1386.88,531.176 1383.5,531C 1382.43,528.343 1380.76,526.177 1378.5,524.5C 1375.09,514.821 1370.26,505.821 1364,497.5C 1362.02,492.044 1359.85,486.711 1357.5,481.5C 1355.81,480.772 1354.31,479.772 1353,478.5C 1352.5,475.854 1352.34,473.187 1352.5,470.5C 1350.61,470.703 1349.11,470.037 1348,468.5C 1347.5,465.854 1347.34,463.187 1347.5,460.5C 1346.18,460.67 1345.01,460.337 1344,459.5C 1342.96,457.285 1342.29,454.952 1342,452.5C 1340.9,450.947 1339.57,449.614 1338,448.5C 1337.67,446.5 1337.33,444.5 1337,442.5C 1333.89,438.313 1331.06,433.979 1328.5,429.5C 1325.9,423.586 1323.4,417.586 1321,411.5C 1318.67,408.544 1316.34,405.544 1314,402.5C 1311.67,396.833 1309.33,391.167 1307,385.5C 1303.43,383.224 1301.59,379.89 1301.5,375.5C 1300.25,374.96 1299.09,374.293 1298,373.5C 1298.27,368.844 1296.6,365.177 1293,362.5C 1293.15,358.456 1291.48,355.456 1288,353.5C 1288.39,349.033 1286.72,345.699 1283,343.5C 1283.39,339.033 1281.72,335.699 1278,333.5C 1277.67,331.833 1277.33,330.167 1277,328.5C 1270.93,317.369 1264.6,306.369 1258,295.5C 1256.26,290.357 1254.26,285.357 1252,280.5C 1250.67,279.833 1249.33,279.167 1248,278.5C 1247.67,275.833 1247.33,273.167 1247,270.5C 1243.54,270.033 1241.87,268.033 1242,264.5C 1241.24,260.745 1241.41,257.078 1242.5,253.5 Z"/></g>
<g><path style="opacity:0.986" fill="#223d92" d="M 339.5,343.5 C 370.5,343.5 401.5,343.5 432.5,343.5C 432.5,374.167 432.5,404.833 432.5,435.5C 401.493,435.579 370.493,435.745 339.5,436C 338.883,405.791 338.883,374.958 339.5,343.5 Z"/></g>
</svg>
